<?xml version="1.0" standalone="no"?>
<!DOCTYPE svg PUBLIC "-//W3C//DTD SVG 20010904//EN"
 "http://www.w3.org/TR/2001/REC-SVG-20010904/DTD/svg10.dtd">
<svg version="1.0" xmlns="http://www.w3.org/2000/svg"
 width="1604.000000pt" height="548.000000pt" viewBox="0 0 1604.000000 548.000000"
 preserveAspectRatio="xMidYMid meet">

<g transform="translate(0.000000,548.000000) scale(0.100000,-0.100000)"
fill="#000000" stroke="none">
<path d="M3240 5270 l0 -200 -85 0 -85 0 0 -40 0 -40 -85 0 c-83 0 -85 -1 -85
-24 l0 -24 -452 -5 c-473 -5 -543 -10 -748 -58 -401 -92 -788 -312 -1076 -611
-573 -595 -759 -1439 -493 -2233 69 -206 224 -482 371 -663 408 -501 1041
-802 1687 -802 498 0 975 166 1368 477 91 72 269 250 344 343 254 318 428 741
459 1122 5 67 12 149 15 181 l5 57 -1090 0 -1090 0 0 -145 0 -145 650 0 c593
0 650 -1 650 -16 0 -28 -67 -219 -101 -286 -227 -455 -699 -748 -1204 -748
-205 0 -398 46 -590 139 -375 183 -638 522 -727 934 -29 137 -31 391 -5 516
61 284 178 503 372 696 186 186 388 297 655 363 103 25 114 25 553 29 l447 5
0 -26 c0 -25 2 -25 83 -28 l82 -3 3 -177 2 -178 -50 0 -50 0 0 -35 0 -34 133
-3 132 -3 3 -157 3 -158 254 0 255 0 0 160 0 160 135 0 135 0 0 35 0 35 -50 0
-50 0 0 695 0 695 -85 0 -85 0 0 200 0 200 -255 0 -255 0 0 -200z"/>
<path d="M5510 4945 c-149 -31 -250 -85 -351 -185 -84 -84 -144 -190 -176
-310 -23 -89 -23 -281 1 -370 51 -187 174 -339 341 -421 104 -51 177 -69 300
-76 263 -14 495 116 603 338 54 109 72 179 79 312 l6 107 -307 0 -306 0 0
-110 0 -110 166 0 166 0 -7 -37 c-16 -88 -87 -178 -170 -217 -240 -114 -530 9
-598 254 -24 86 -29 149 -17 225 36 232 216 377 448 363 94 -6 175 -36 242
-89 l51 -40 47 40 c26 21 69 62 95 89 l48 49 -51 46 c-59 53 -167 109 -255
133 -83 22 -273 27 -355 9z"/>
<path d="M13660 4946 c-134 -29 -212 -69 -283 -145 -56 -59 -81 -108 -97 -186
-16 -78 -7 -164 26 -234 31 -68 53 -94 120 -137 70 -45 144 -68 315 -98 240
-42 304 -76 304 -161 0 -58 -27 -93 -97 -128 -130 -66 -359 -37 -533 68 -32
20 -59 34 -60 33 -2 -2 -32 -48 -68 -103 l-66 -100 22 -18 c42 -35 204 -106
287 -127 327 -80 642 8 747 207 96 181 52 378 -107 478 -61 38 -169 72 -325
100 -83 15 -171 36 -198 47 -82 35 -117 100 -86 161 40 77 117 111 254 111
105 -1 190 -20 294 -69 40 -19 75 -35 77 -35 2 0 25 37 52 83 84 142 86 121
-20 172 -51 25 -129 54 -173 65 -105 27 -297 35 -385 16z"/>
<path d="M6550 4270 l0 -670 500 0 500 0 0 120 0 120 -365 0 -365 0 0 155 0
155 345 0 345 0 0 120 0 120 -345 0 -345 0 0 155 0 155 360 0 360 0 0 120 0
120 -495 0 -495 0 0 -670z"/>
<path d="M7830 4270 l0 -670 130 0 130 0 2 448 3 447 340 -447 340 -448 123 0
122 0 0 670 0 670 -130 0 -130 0 0 -447 -1 -448 -28 33 c-15 17 -169 219 -342
447 l-314 414 -122 1 -123 0 0 -670z"/>
<path d="M9330 4270 l0 -670 495 0 495 0 0 120 0 120 -365 0 -365 0 0 155 0
155 345 0 345 0 0 120 0 120 -342 2 -343 3 -3 153 -3 152 366 0 365 0 0 120 0
120 -495 0 -495 0 0 -670z"/>
<path d="M10600 4271 l0 -671 130 0 130 0 0 265 0 265 44 0 44 0 193 -265 194
-265 158 0 c86 0 157 1 157 3 0 2 -90 120 -200 263 -110 142 -200 262 -200
265 0 3 29 11 65 18 202 40 323 171 333 359 9 172 -55 296 -190 367 -102 54
-137 58 -510 63 l-348 4 0 -671z m696 398 c64 -32 86 -74 81 -150 -4 -71 -26
-105 -85 -132 -43 -20 -64 -22 -237 -22 l-190 0 -3 155 c-1 85 0 161 3 168 4
12 38 14 194 10 177 -3 191 -5 237 -29z"/>
<path d="M12273 4923 c-4 -10 -114 -295 -246 -633 -131 -338 -245 -632 -253
-653 l-13 -38 136 3 137 3 57 150 56 150 290 3 290 2 27 -75 c15 -41 40 -111
57 -155 l31 -80 139 0 c76 0 139 1 139 3 0 1 -116 301 -258 667 l-259 665
-162 3 c-147 2 -162 1 -168 -15z m263 -503 c47 -129 89 -241 91 -247 4 -10
-38 -13 -190 -13 l-195 0 96 255 c53 141 99 252 103 248 4 -5 47 -114 95 -243z"/>
<path d="M14570 4270 l0 -670 135 0 135 0 0 670 0 670 -135 0 -135 0 0 -670z"/>
<path d="M7445 3170 c-228 -33 -414 -162 -511 -354 -53 -102 -74 -199 -74
-331 0 -210 57 -354 194 -490 119 -118 241 -175 416 -194 221 -24 425 39 572
177 84 79 132 151 169 252 95 260 39 552 -141 740 -150 157 -393 234 -625 200z
m262 -270 c163 -57 261 -197 271 -385 10 -204 -70 -348 -238 -429 -62 -29 -71
-31 -185 -31 -113 0 -124 2 -185 31 -163 77 -252 242 -237 442 15 211 156 365
362 395 50 8 157 -4 212 -23z"/>
<path d="M10121 3169 c-153 -23 -282 -88 -387 -194 -243 -245 -259 -674 -35
-943 256 -308 802 -315 1071 -14 67 74 135 214 156 317 35 169 4 369 -78 515
-46 81 -169 198 -255 243 -131 68 -321 99 -472 76z m189 -249 c282 -45 429
-332 319 -625 -31 -83 -130 -183 -214 -215 -89 -34 -222 -39 -312 -11 -237 72
-351 345 -253 604 45 118 178 224 310 246 76 12 77 12 150 1z"/>
<path d="M11714 3170 c-197 -28 -370 -132 -473 -285 -142 -213 -159 -486 -43
-725 50 -104 176 -230 283 -283 108 -53 211 -77 333 -77 194 0 333 55 457 179
125 125 185 271 196 474 l6 107 -307 0 -306 0 0 -110 0 -110 165 0 c164 0 165
0 165 -22 0 -37 -48 -130 -88 -171 -127 -132 -381 -142 -544 -22 -157 115
-210 377 -117 572 117 244 445 307 665 127 l40 -33 93 93 93 93 -49 42 c-58
50 -186 115 -267 136 -75 19 -223 26 -302 15z"/>
<path d="M5020 2484 l0 -666 373 5 c293 3 383 7 422 19 132 39 208 96 252 186
25 51 28 67 28 162 0 89 -3 111 -22 146 -28 53 -95 119 -143 141 -22 10 -40
20 -40 23 0 3 16 14 36 25 50 27 110 97 128 152 23 67 21 180 -5 247 -25 69
-87 134 -160 169 -101 50 -163 57 -531 57 l-338 0 0 -666z m705 410 c97 -50
102 -197 9 -255 -37 -23 -48 -24 -241 -27 l-203 -3 0 156 0 156 198 -3 c176
-3 201 -5 237 -24z m17 -541 c59 -27 81 -61 86 -132 5 -69 -22 -115 -83 -146
-35 -18 -64 -20 -247 -23 l-208 -3 0 167 0 167 203 -5 c176 -4 208 -7 249 -25z"/>
<path d="M6350 2485 l0 -665 130 0 130 0 0 665 0 665 -130 0 -130 0 0 -665z"/>
<path d="M8500 2485 l0 -665 485 0 485 0 0 120 0 120 -352 2 -353 3 -3 543 -2
542 -130 0 -130 0 0 -665z"/>
<path d="M12710 2485 l0 -665 135 0 135 0 0 665 0 665 -135 0 -135 0 0 -665z"/>
<path d="M9022 1370 c-317 -83 -518 -366 -499 -705 11 -195 66 -325 192 -450
91 -92 175 -141 300 -177 113 -32 297 -32 410 0 256 73 432 263 481 520 61
319 -79 624 -348 757 -51 25 -124 52 -163 60 -101 21 -282 19 -373 -5z m340
-251 c34 -11 80 -33 103 -49 171 -117 231 -374 135 -575 -98 -205 -355 -289
-573 -187 -281 131 -317 562 -63 753 102 77 269 102 398 58z"/>
<path d="M13274 1370 c-97 -25 -167 -62 -231 -122 -90 -86 -130 -205 -111
-338 16 -119 82 -205 200 -260 62 -29 110 -41 342 -84 160 -30 226 -73 226
-149 0 -49 -37 -98 -95 -127 -67 -33 -223 -40 -329 -15 -82 20 -185 64 -232
100 l-32 25 -61 -94 c-34 -52 -64 -101 -67 -109 -11 -29 125 -102 260 -142
308 -89 625 -26 759 150 101 133 100 351 -1 458 -79 84 -176 124 -402 166
-195 36 -264 65 -287 119 -12 29 -13 44 -4 73 43 144 305 172 548 59 60 -28
84 -35 91 -27 20 26 115 198 111 201 -2 2 -35 19 -74 38 -82 41 -176 73 -259
87 -95 17 -270 13 -352 -9z"/>
<path d="M5020 705 l0 -665 135 0 135 0 0 665 0 665 -135 0 -135 0 0 -665z"/>
<path d="M5600 705 l0 -665 130 0 130 0 2 443 3 444 335 -441 335 -441 128 -3
127 -3 0 666 0 665 -130 0 -130 0 -2 -447 -3 -448 -340 447 -340 447 -122 1
-123 0 0 -665z"/>
<path d="M7100 705 l0 -666 358 3 c357 4 357 4 437 31 167 56 292 157 363 295
62 118 76 184 76 342 -1 118 -4 145 -27 215 -55 167 -164 297 -307 367 -140
68 -156 71 -547 75 l-353 5 0 -667z m625 415 c142 -20 258 -107 307 -228 20
-49 23 -75 23 -187 0 -112 -3 -138 -23 -187 -32 -80 -106 -158 -180 -191 -86
-39 -144 -47 -328 -47 l-164 0 0 425 0 425 148 0 c81 0 179 -5 217 -10z"/>
<path d="M10160 705 l0 -665 135 0 135 0 2 442 3 443 335 -442 335 -442 128
-1 127 0 0 665 0 665 -135 0 -135 0 -2 -442 -3 -442 -335 441 -335 442 -127 0
-128 1 0 -665z"/>
<path d="M11660 705 l0 -665 500 0 500 0 0 120 0 120 -365 0 -365 0 0 155 0
155 345 0 345 0 0 120 0 120 -345 0 -345 0 0 150 0 150 360 0 360 0 0 120 0
120 -495 0 -495 0 0 -665z"/>
<path d="M14230 705 l0 -665 130 0 130 0 0 665 0 665 -130 0 -130 0 0 -665z"/>
<path d="M14950 764 c-129 -333 -245 -633 -257 -665 l-23 -60 137 3 137 3 57
150 56 150 288 0 289 0 55 -152 56 -153 139 0 138 0 -6 23 c-3 12 -118 310
-255 662 l-249 640 -163 2 -164 3 -235 -606z m493 91 c47 -126 88 -238 92
-247 7 -17 -6 -18 -190 -18 -184 0 -197 1 -190 18 4 9 48 126 98 260 52 139
94 237 98 230 4 -7 45 -116 92 -243z"/>
<path d="M1555 396 c-16 -8 -49 -32 -72 -55 l-42 -41 -130 0 c-100 0 -143 -4
-193 -20 -69 -21 -138 -73 -163 -121 -22 -42 -20 -106 4 -119 13 -7 417 -10
1238 -10 1005 0 1222 2 1238 13 14 11 17 23 13 61 -8 66 -48 113 -132 156 -68
34 -72 34 -222 40 l-153 5 -43 42 c-24 23 -56 47 -71 52 -46 18 -1233 14
-1272 -3z"/>
</g>
</svg>
