<?xml version="1.0" encoding="UTF-8"?>
<!DOCTYPE svg PUBLIC "-//W3C//DTD SVG 1.1//EN" "http://www.w3.org/Graphics/SVG/1.1/DTD/svg11.dtd">
<!-- Creator: CorelDRAW X7 -->
<svg xmlns="http://www.w3.org/2000/svg" xml:space="preserve" width="3000px" height="3000px" version="1.1" style="shape-rendering:geometricPrecision; text-rendering:geometricPrecision; image-rendering:optimizeQuality; fill-rule:evenodd; clip-rule:evenodd"
viewBox="0 0 3000 3000"
 xmlns:xlink="http://www.w3.org/1999/xlink">
 <defs>
  <style type="text/css">
   <![CDATA[
    .fil2 {fill:none}
    .fil1 {fill:#4F4C4C}
    .fil0 {fill:#EC2425}
   ]]>
  </style>
 </defs>
 <g id="Layer_x0020_1">
  <metadata id="CorelCorpID_0Corel-Layer"/>
  <g id="_2042960204176">
   <path class="fil0" d="M710 931c7,264 174,517 373,633 71,47 165,45 226,-11 36,-32 34,-65 -1,-85 -12,-7 -23,-10 -35,-15 -40,-16 -83,-42 -94,-67 54,20 107,33 164,30 36,-2 58,-12 72,-37 10,-20 15,-52 18,-75 16,-156 -78,-308 -251,-314 -58,-2 -114,8 -171,8 -103,1 -211,1 -301,-67zm978 -8c-111,0 -161,86 -159,161 2,110 -11,219 -46,325 -35,106 -87,195 -194,246 467,124 935,-172 998,-679 1,-11 3,-25 3,-35 0,-11 -5,-20 -21,-19 -194,1 -388,0 -581,1zm-159 -223c-2,74 48,160 159,160 193,1 387,0 581,1 16,1 21,-8 21,-19 0,-10 -2,-24 -3,-35 -63,-507 -531,-803 -998,-679 107,51 159,140 194,246 35,106 48,215 46,326zm348 46c-2,7 -3,13 -5,20 -1,5 -3,9 -10,9 -6,0 -8,-4 -10,-9 -1,-7 -2,-13 -4,-20 -8,-27 -17,-55 -31,-81 -27,-51 -75,-75 -127,-92 -12,-4 -19,-5 -32,-7 -8,-1 -15,-4 -15,-13 0,-9 7,-12 15,-14 13,-2 20,-2 32,-6 52,-17 100,-41 127,-93 14,-25 23,-53 31,-81 2,-7 3,-13 4,-19 2,-5 4,-9 10,-9 7,0 9,4 10,9 2,6 3,12 5,19 8,28 17,56 30,81 28,52 75,76 128,93 12,4 19,4 31,6 9,2 16,5 16,14 0,9 -7,12 -16,13 -12,2 -19,3 -31,7 -53,17 -100,41 -128,92 -13,26 -22,54 -30,81zm-1076 -145c0,158 129,287 287,287 159,0 287,-129 287,-287 0,-159 -128,-287 -287,-287 -158,0 -287,128 -287,287z"/>
   <g>
    <g>
     <path class="fil1" d="M454 1941l0 465 29 0 44 0 37 0 196 0 16 -5 77 -50 11 -24 0 -106 -9 -22 -32 -24 -2 -1 2 -2 32 -24 9 -22 0 -106 -11 -24 -77 -50 -16 -5 -15 0 -291 0zm73 393l0 -123 221 0 45 34 0 58 -48 31 -218 0zm221 -198l-221 0 0 -122 218 0 48 30 0 59 -45 33z"/>
     <path class="fil1" d="M1107 2014l0 157 0 11 0 224 72 0 0 -188 218 0 48 48 0 140 71 0 0 -172 -50 -49 51 -39 0 -20 0 -106 0 -12 -99 -67 -239 0 -72 0 0 35 0 0 0 38zm292 131l-220 0 0 -131 218 0 48 30 0 65 -46 36z"/>
     <polygon class="fil1" points="1758,1941 1758,2406 1830,2406 1830,1941 "/>
     <polygon class="fil1" points="2070,2028 2070,2063 2070,2406 2142,2406 2142,2063 2142,2058 2158,2074 2190,2105 2473,2389 2490,2406 2546,2382 2546,2063 2546,2028 2546,1941 2473,1941 2473,2028 2473,2063 2473,2287 2241,2054 2209,2023 2142,1956 2128,1941 2070,1964 "/>
    </g>
    <g>
     <path class="fil1" d="M526 2594c-6,-6 -15,-9 -27,-9l-42 0c-1,0 -1,1 -2,1 0,1 -1,1 -1,2l0 109c0,1 1,2 1,2 1,1 1,1 2,1l40 0c13,0 23,-3 30,-9 7,-5 10,-14 10,-25 0,-6 -1,-12 -4,-16 -2,-4 -6,-8 -9,-10 3,-2 6,-5 8,-8 2,-5 3,-10 3,-15 0,-10 -3,-18 -9,-23zm-26 58c5,0 8,1 11,4 3,2 4,6 4,10 0,4 -1,8 -4,11 -3,2 -6,3 -11,3l-24 0 0 -28 24 0zm13 -33c0,4 -1,7 -4,9 -2,3 -6,4 -10,4l-23 0 0 -27 23 0c4,0 8,2 10,4 3,2 4,6 4,10z"/>
     <path class="fil1" d="M601 2588l-38 109c-1,1 -1,2 0,2 0,1 1,1 2,1l16 0c1,0 2,0 2,0 1,-1 1,-2 1,-2l8 -21 40 0 7 21c0,0 1,1 1,2 1,0 2,0 2,0l17 0c1,0 1,0 2,-1 0,0 0,-1 0,-2l-38 -109c0,-1 -1,-1 -1,-2 -1,0 -1,-1 -2,-1l-15 0c-1,0 -2,1 -3,1 0,1 -1,1 -1,2zm11 30l13 39 -27 0 14 -39z"/>
     <path class="fil1" d="M691 2588l0 109c0,1 1,2 1,2 1,1 2,1 2,1l41 0c10,0 18,-2 24,-6 7,-5 11,-11 14,-20 1,-3 2,-7 2,-12 1,-5 1,-12 1,-19 0,-8 0,-14 -1,-19 0,-6 -1,-10 -2,-13 -3,-8 -7,-15 -14,-19 -6,-4 -14,-7 -24,-7l-41 0c0,0 -1,1 -2,1 0,1 -1,1 -1,2zm39 18c6,0 11,1 14,3 4,2 6,5 8,10l0 0c1,2 1,4 1,8 1,4 1,9 1,16 0,6 0,11 -1,15 0,4 0,7 -1,9l0 0c-2,4 -4,8 -8,10 -3,2 -8,3 -14,3l-16 0 0 -74 16 0z"/>
     <path class="fil1" d="M839 2588l-39 109c0,1 0,2 1,2 0,1 1,1 2,1l16 0c1,0 1,0 2,0 1,-1 1,-2 1,-2l7 -21 41 0 7 21c0,0 0,1 1,2 1,0 1,0 2,0l16 0c1,0 2,0 3,-1 0,0 0,-1 0,-2l-38 -109c0,-1 -1,-1 -1,-2 -1,0 -2,-1 -3,-1l-15 0c-1,0 -1,1 -2,1 0,1 -1,1 -1,2zm11 30l13 39 -27 0 14 -39z"/>
     <path class="fil1" d="M949 2624l45 74c0,1 1,1 1,2 1,0 2,0 2,0l15 0c1,0 2,0 3,-1 0,0 0,-1 0,-2l0 -109c0,-1 0,-1 0,-2 -1,0 -2,-1 -3,-1l-14 0c-1,0 -2,1 -2,1 -1,1 -1,1 -1,2l0 74 -44 -74c0,-1 -1,-2 -1,-2 -1,0 -2,-1 -3,-1l-15 0c-1,0 -1,1 -2,1 -1,1 -1,1 -1,2l0 109c0,1 0,2 1,2 1,1 1,1 2,1l15 0c0,0 1,0 2,-1 0,0 0,-1 0,-2l0 -73z"/>
     <path class="fil1" d="M1135 2606l24 0c4,0 8,1 11,4 3,2 4,6 4,10 0,5 -1,8 -4,11 -3,2 -7,4 -11,4l-24 0 0 -29zm-22 -18l0 109c0,1 0,2 1,2 0,1 1,1 2,1l16 0c1,0 2,0 2,-1 1,0 1,-1 1,-2l0 -42 18 0 21 43c0,1 1,1 2,2 0,0 1,0 2,0l18 0c1,0 1,0 2,0 0,0 0,-1 0,-1 1,0 1,-1 1,-1 0,-1 0,-1 -1,-2l-22 -44c6,-3 11,-7 14,-12 4,-6 6,-12 6,-20 0,-5 -1,-9 -2,-14 -2,-4 -5,-8 -8,-11 -4,-3 -8,-6 -12,-7 -5,-2 -9,-3 -15,-3l-43 0c-1,0 -2,1 -2,1 -1,1 -1,1 -1,2z"/>
     <path class="fil1" d="M1233 2588l0 109c0,1 0,2 1,2 0,1 1,1 2,1l16 0c1,0 2,0 2,-1 1,0 1,-1 1,-2l0 -109c0,-1 0,-1 -1,-2 0,0 -1,-1 -2,-1l-16 0c-1,0 -2,1 -2,1 -1,1 -1,1 -1,2z"/>
     <path class="fil1" d="M1305 2593c-7,6 -11,15 -11,26 0,9 3,17 9,22 6,6 15,9 26,11l6 1c7,1 12,2 15,5 3,2 4,5 4,9 0,5 -1,8 -5,11 -3,2 -8,4 -14,4 -5,0 -10,-1 -15,-3 -5,-2 -10,-5 -15,-9 -1,0 -1,-1 -2,0 -1,0 -2,0 -2,1 -3,3 -8,8 -10,12 -1,0 -1,1 -1,2 0,1 0,1 1,2 2,2 5,4 8,6 3,2 7,3 10,5 4,1 8,2 12,3 4,1 8,1 12,1 14,0 24,-4 32,-10 8,-6 12,-15 12,-26 0,-10 -3,-17 -9,-23 -6,-6 -15,-9 -26,-11l-6 -1c-7,-1 -12,-2 -15,-5 -3,-2 -4,-5 -4,-9 0,-4 1,-7 4,-10 3,-2 7,-3 12,-3 4,0 9,0 13,2 4,1 9,3 13,6l0 0c1,1 2,1 2,1 1,0 2,-1 2,-2 3,-3 6,-8 8,-12 1,-1 1,-1 1,-2 0,-1 -1,-1 -1,-2l-1 0c-5,-4 -10,-7 -16,-8 -7,-2 -13,-3 -21,-3 -11,0 -21,3 -28,9z"/>
     <path class="fil1" d="M1410 2588l0 109c0,1 1,2 1,2 1,1 2,1 2,1l71 0c1,0 1,0 2,-1 0,0 1,-1 1,-2l0 -14c0,-1 -1,-2 -1,-2 -1,-1 -1,-1 -2,-1l-51 0 0 -28 43 0c1,0 1,0 2,0 0,-1 1,-2 1,-3l0 -14c0,-1 -1,-1 -1,-2 -1,0 -1,-1 -2,-1l-43 0 0 -26 51 0c1,0 1,-1 2,-1 0,-1 1,-1 1,-2l0 -15c0,-1 -1,-1 -1,-2 -1,0 -1,-1 -2,-1l-71 0c0,0 -1,1 -2,1 0,1 -1,1 -1,2z"/>
     <path class="fil1" d="M1515 2605c0,0 1,1 2,1l29 0 0 91c0,1 0,2 1,2 0,1 1,1 2,1l16 0c1,0 2,0 2,-1 1,0 1,-1 1,-2l0 -91 29 0c1,0 2,-1 2,-1 1,-1 1,-1 1,-2l0 -15c0,-1 0,-1 -1,-2 0,0 -1,-1 -2,-1l-80 0c-1,0 -2,1 -2,1 -1,1 -1,1 -1,2l0 15c0,1 0,1 1,2z"/>
     <path class="fil1" d="M536 2809c-3,-8 -7,-15 -14,-19 -6,-4 -15,-7 -25,-7l-40 0c-1,0 -1,1 -2,1 0,1 -1,1 -1,2l0 109c0,1 1,2 1,2 1,1 1,1 2,1l40 0c10,0 19,-2 25,-6 7,-5 11,-11 14,-20 1,-3 2,-7 2,-12 1,-5 1,-12 1,-19 0,-8 0,-14 -1,-19 0,-6 -1,-10 -2,-13zm-20 16c1,4 1,9 1,16 0,6 0,11 -1,15 0,4 -1,7 -1,9l0 0c-2,4 -4,8 -8,10 -3,2 -8,3 -14,3l-17 0 0 -74 17 0c6,0 11,1 14,3 4,2 6,5 8,10l0 0c0,2 1,4 1,8z"/>
     <path class="fil1" d="M602 2786l-39 109c0,1 0,2 1,2 0,1 1,1 2,1l16 0c1,0 1,0 2,0 0,-1 1,-2 1,-2l7 -21 41 0 7 21c0,0 0,1 1,2 1,0 1,0 2,0l16 0c1,0 2,0 2,-1 1,0 1,-1 1,-2l-38 -109c-1,-1 -1,-1 -1,-2 -1,0 -2,-1 -3,-1l-15 0c-1,0 -1,1 -2,1 -1,1 -1,1 -1,2zm11 30l13 39 -27 0 14 -39z"/>
     <path class="fil1" d="M692 2786l0 109c0,1 0,2 1,2 0,1 1,1 2,1l14 0c1,0 2,0 3,-1 0,0 0,-1 0,-2l0 -73 44 74c1,1 1,1 2,2 1,0 2,0 2,0l15 0c1,0 2,0 3,-1 0,0 0,-1 0,-2l0 -109c0,-1 0,-1 0,-2 -1,0 -2,-1 -3,-1l-14 0c-1,0 -2,1 -2,1 -1,1 -1,1 -1,2l0 74 -44 -74c0,-1 -1,-2 -1,-2 -1,0 -2,-1 -3,-1l-15 0c-1,0 -2,1 -2,1 -1,1 -1,1 -1,2z"/>
     <path class="fil1" d="M876 2786l0 109c0,1 0,2 1,2 0,1 1,1 2,1l16 0c1,0 2,0 2,-1 1,0 1,-1 1,-2l0 -109c0,-1 0,-1 -1,-2 0,0 -1,-1 -2,-1l-16 0c-1,0 -2,1 -2,1 -1,1 -1,1 -1,2z"/>
     <path class="fil1" d="M938 2786l0 109c0,1 0,2 1,2 0,1 1,1 2,1l14 0c1,0 2,0 3,-1 0,0 0,-1 0,-2l0 -73 44 74c1,1 1,1 2,2 1,0 2,0 2,0l15 0c1,0 2,0 3,-1 0,0 0,-1 0,-2l0 -109c0,-1 0,-1 0,-2 -1,0 -2,-1 -3,-1l-14 0c-1,0 -2,1 -2,1 -1,1 -1,1 -1,2l0 74 -44 -74c0,-1 -1,-2 -1,-2 -1,0 -2,-1 -3,-1l-15 0c-1,0 -2,1 -2,1 -1,1 -1,1 -1,2z"/>
     <path class="fil1" d="M1079 2789c-6,5 -12,12 -15,21 -1,3 -1,7 -2,12 0,5 -1,11 -1,19 0,7 1,13 1,19 1,5 1,9 2,12 3,9 9,16 15,21 7,5 16,7 26,7 10,0 19,-2 26,-7 7,-5 12,-12 15,-21 1,-3 2,-7 3,-12 0,-6 0,-12 0,-19 0,-8 0,-14 0,-19 -1,-5 -2,-9 -3,-12 -3,-9 -8,-16 -15,-21 -7,-5 -16,-7 -26,-7 -10,0 -19,2 -26,7zm14 16c3,-2 7,-3 12,-3 5,0 9,1 13,3 3,2 5,6 7,11 1,1 1,5 1,9 1,4 1,9 1,16 0,6 0,12 -1,16 0,4 0,7 -1,9 -2,5 -4,8 -7,10 -4,3 -8,4 -13,4 -5,0 -9,-1 -12,-4 -3,-2 -6,-5 -7,-10 -1,-2 -1,-5 -2,-9 0,-4 0,-10 0,-16 0,-7 0,-12 0,-16 1,-4 1,-8 2,-9 1,-5 4,-9 7,-11z"/>
     <path class="fil1" d="M1177 2787l35 109c0,0 1,1 1,1 1,1 2,1 2,1l14 0c1,0 1,0 2,-1 1,0 1,-1 1,-1l36 -109c0,-1 0,-2 -1,-3 0,0 -1,-1 -2,-1l-16 0c-1,0 -1,1 -2,1 0,1 -1,1 -1,2l-23 76 -24 -76c-1,-1 -1,-1 -1,-2 -1,0 -2,-1 -3,-1l-16 0c-1,0 -1,1 -2,1 0,1 -1,2 0,3z"/>
     <path class="fil1" d="M1318 2786l-38 109c0,1 0,2 0,2 1,1 1,1 2,1l16 0c1,0 2,0 2,0 1,-1 1,-2 2,-2l7 -21 40 0 7 21c1,0 1,1 1,2 1,0 2,0 3,0l16 0c1,0 2,0 2,-1 0,0 0,-1 0,-2l-38 -109c0,-1 0,-1 -1,-2 -1,0 -1,-1 -2,-1l-15 0c-1,0 -2,1 -2,1 -1,1 -1,1 -2,2zm-2 69l13 -39 13 39 -26 0z"/>
     <path class="fil1" d="M1446 2802c5,0 9,0 13,2 5,1 9,3 13,6l0 0c1,1 2,1 2,1 1,0 2,-1 2,-2 3,-3 6,-8 8,-12 1,-1 1,-1 1,-2 0,-1 -1,-1 -1,-2l0 0c-5,-4 -11,-7 -17,-8 -6,-2 -13,-3 -20,-3 -12,0 -22,3 -29,9 -7,6 -11,15 -11,26 0,9 3,17 9,22 6,6 15,9 26,11l6 1c8,1 12,2 15,5 3,2 5,5 5,9 0,5 -2,8 -6,11 -3,2 -8,4 -14,4 -5,0 -10,-1 -15,-3 -5,-2 -10,-5 -15,-9 -1,0 -1,-1 -2,0 -1,0 -1,0 -2,1 -3,4 -7,8 -10,12 -1,0 -1,1 -1,2 0,1 1,1 1,2 2,2 5,4 8,6 3,2 7,3 11,5 3,1 7,2 11,3 4,1 8,1 12,1 14,0 25,-4 32,-10 8,-6 12,-15 12,-26 0,-10 -3,-17 -9,-23 -6,-6 -14,-9 -26,-11l-6 -1c-6,-1 -11,-2 -15,-5 -3,-2 -4,-5 -4,-9 0,-4 1,-7 4,-10 3,-2 7,-3 12,-3z"/>
     <path class="fil1" d="M1524 2786l0 109c0,1 0,2 0,2 1,1 2,1 3,1l16 0c1,0 1,0 2,-1 0,0 1,-1 1,-2l0 -109c0,-1 -1,-1 -1,-2 -1,0 -1,-1 -2,-1l-16 0c-1,0 -2,1 -3,1 0,1 0,1 0,2z"/>
     <path class="fil1" d="M1643 2786l0 109c0,1 0,2 1,2 0,1 1,1 2,1l14 0c1,0 2,0 3,-1 0,0 0,-1 0,-2l0 -73 44 74c1,1 1,1 2,2 1,0 2,0 2,0l15 0c1,0 2,0 3,-1 0,0 0,-1 0,-2l0 -109c0,-1 0,-1 0,-2 -1,0 -2,-1 -3,-1l-14 0c-1,0 -2,1 -2,1 -1,1 -1,1 -1,2l0 74 -44 -74c0,-1 -1,-2 -1,-2 -1,0 -2,-1 -3,-1l-15 0c-1,0 -2,1 -2,1 -1,1 -1,1 -1,2z"/>
     <path class="fil1" d="M1810 2816l13 39 -26 0 13 -39zm-11 -30l-38 109c0,1 0,2 0,2 0,1 1,1 2,1l16 0c1,0 2,0 2,0 1,-1 1,-2 2,-2l7 -21 40 0 7 21c0,0 1,1 1,2 1,0 2,0 3,0l16 0c1,0 1,0 2,-1 0,0 0,-1 0,-2l-38 -109c0,-1 0,-1 -1,-2 -1,0 -1,-1 -2,-1l-15 0c-1,0 -2,1 -3,1 0,1 -1,1 -1,2z"/>
     <path class="fil1" d="M1885 2885l0 0zm80 -92l0 0zm-66 -2c-7,6 -11,15 -11,26 0,9 3,17 9,22 6,6 15,9 26,11l6 1c7,1 12,2 15,5 3,2 4,5 4,9 0,5 -1,8 -5,11 -3,2 -8,4 -14,4 -5,0 -10,-1 -15,-3 -5,-2 -10,-5 -15,-9 -1,0 -1,-1 -2,0 -1,0 -1,0 -2,1 -4,3 -7,8 -10,12 -1,0 -1,1 -1,2 0,0 0,1 1,2 2,2 5,4 8,6 3,2 7,3 10,5 4,1 8,2 12,3 4,1 8,1 12,1 14,0 24,-4 32,-10 8,-6 12,-15 12,-26 0,-10 -3,-17 -9,-23 -6,-6 -14,-9 -26,-11l-6 -1c-6,-1 -11,-2 -15,-5 -3,-2 -4,-5 -4,-9 0,-4 1,-7 4,-10 3,-2 7,-3 12,-3 4,0 9,0 13,2 5,1 9,3 13,6l0 0c1,1 2,1 2,1 1,0 2,-1 2,-2 3,-3 6,-8 8,-12 1,-1 1,-1 1,-2 0,-1 -1,-1 -1,-2 -5,-4 -11,-7 -17,-8 -6,-2 -13,-3 -20,-3 -12,0 -22,3 -29,9z"/>
     <path class="fil1" d="M2005 2786l0 109c0,1 0,2 0,2 1,1 2,1 3,1l16 0c1,0 1,0 2,-1 0,0 1,-1 1,-2l0 -109c0,-1 -1,-1 -1,-2 -1,0 -1,-1 -2,-1l-16 0c-1,0 -2,1 -3,1 0,1 0,1 0,2z"/>
     <path class="fil1" d="M2120 2805c3,2 6,6 7,11 1,1 1,5 2,9 0,4 0,9 0,16 0,6 0,12 0,16 -1,4 -1,7 -2,9 -1,5 -4,8 -7,10 -3,3 -7,4 -12,4 -5,0 -9,-1 -13,-4 -3,-2 -5,-5 -7,-10 -1,-2 -1,-5 -1,-9 -1,-4 -1,-10 -1,-16 0,-7 0,-12 1,-16 0,-4 0,-8 1,-9 2,-5 4,-9 7,-11 4,-2 8,-3 13,-3 5,0 9,1 12,3zm-53 5c-1,3 -2,7 -3,12 0,5 0,11 0,19 0,7 0,13 0,19 1,5 2,9 3,12 3,9 8,16 15,21 7,5 15,7 26,7 10,0 19,-2 25,-7 7,-5 13,-12 16,-21 1,-3 1,-7 2,-12 0,-6 1,-12 1,-19 0,-8 -1,-14 -1,-19 -1,-5 -1,-9 -2,-12 -3,-9 -9,-16 -16,-21 -6,-5 -15,-7 -25,-7 -11,0 -19,2 -26,7 -7,5 -12,12 -15,21z"/>
     <path class="fil1" d="M2189 2786l0 109c0,1 0,2 0,2 1,1 2,1 3,1l14 0c1,0 2,0 2,-1 1,0 1,-1 1,-2l0 -73 44 74c0,1 1,1 2,2 0,0 1,0 2,0l15 0c1,0 1,0 2,-1 1,0 1,-1 1,-2l0 -109c0,-1 0,-1 -1,-2 -1,0 -1,-1 -2,-1l-15 0c0,0 -1,1 -2,1 0,1 0,1 0,2l0 74 -44 -74c-1,-1 -1,-2 -2,-2 -1,0 -1,-1 -2,-1l-15 0c-1,0 -2,1 -3,1 0,1 0,1 0,2z"/>
     <path class="fil1" d="M2345 2786l-39 109c0,1 0,2 0,2 1,1 2,1 3,1l16 0c1,0 1,0 2,0 0,-1 1,-2 1,-2l7 -21 41 0 7 21c0,0 0,1 1,2 0,0 1,0 2,0l16 0c1,0 2,0 2,-1 1,0 1,-1 1,-2l-38 -109c-1,-1 -1,-1 -2,-2 0,0 -1,-1 -2,-1l-15 0c-1,0 -1,1 -2,1 -1,1 -1,1 -1,2zm10 30l14 39 -27 0 13 -39z"/>
     <path class="fil1" d="M2435 2786l0 109c0,1 0,2 1,2 0,1 1,1 2,1l70 0c1,0 2,0 2,-1 1,0 1,-1 1,-2l0 -14c0,-1 0,-2 -1,-2 0,-1 -1,-1 -2,-1l-51 0 0 -92c0,-1 0,-1 -1,-2 0,0 -1,-1 -2,-1l-16 0c-1,0 -2,1 -2,1 -1,1 -1,1 -1,2z"/>
    </g>
   </g>
  </g>
  <polygon class="fil2" points="0,0 3000,0 3000,3000 0,3000 "/>
 </g>
</svg>
