<?xml version="1.0" standalone="no"?>
<!DOCTYPE svg PUBLIC "-//W3C//DTD SVG 20010904//EN"
 "http://www.w3.org/TR/2001/REC-SVG-20010904/DTD/svg10.dtd">
<svg version="1.0" xmlns="http://www.w3.org/2000/svg"
 width="1187.000000pt" height="573.000000pt" viewBox="0 0 1187.000000 573.000000"
 preserveAspectRatio="xMidYMid meet">

<g transform="translate(0.000000,573.000000) scale(0.100000,-0.100000)"
fill="#000000" stroke="none">
<path d="M2988 3448 l-3 -83 -162 -3 -163 -2 0 -40 0 -40 380 0 380 0 0 40 0
40 -170 0 -170 0 0 85 0 85 -45 0 -44 0 -3 -82z"/>
<path d="M6460 3475 l0 -55 -178 0 -178 0 -2 -40 -3 -40 401 0 400 0 0 40 0
40 -180 0 -180 0 0 55 0 55 -40 0 -40 0 0 -55z"/>
<path d="M7318 3517 l-26 -12 20 -65 c11 -36 23 -68 27 -73 8 -8 71 11 71 21
1 22 -46 142 -54 142 -6 -1 -23 -6 -38 -13z"/>
<path d="M8764 3408 l-9 -123 -170 -5 -170 -5 0 -40 0 -40 163 -3 c89 -1 162
-4 162 -5 -1 -15 -33 -104 -53 -146 -52 -107 -116 -175 -230 -243 l-55 -34 30
-33 30 -34 36 17 c52 25 146 100 185 149 41 49 100 156 117 210 l12 39 50
-101 c58 -117 151 -225 243 -280 l57 -35 33 40 33 39 -50 27 c-113 62 -197
157 -263 301 -19 42 -35 78 -35 81 0 3 74 6 165 6 l165 0 0 45 0 45 -181 0
-181 0 4 125 4 125 -42 0 -41 0 -9 -122z"/>
<path d="M9735 3500 c-27 -10 -62 -15 -77 -13 -28 5 -28 5 -23 -38 2 -24 7
-88 10 -141 l5 -98 -35 0 -36 0 3 -87 3 -88 35 0 35 0 3 58 3 57 307 -2 307
-3 3 -58 3 -58 37 3 37 3 3 88 3 87 -37 0 -37 0 6 58 c4 31 9 96 13 145 l7 87
-112 0 -111 0 0 -25 c0 -24 2 -25 71 -25 67 0 70 -1 67 -22 -3 -21 -9 -23 -70
-26 -65 -3 -68 -4 -68 -27 0 -24 3 -25 65 -25 58 0 65 -2 65 -20 0 -16 -8 -19
-62 -22 -60 -3 -63 -4 -66 -30 -3 -28 -3 -28 57 -28 54 0 61 -2 61 -20 0 -19
-7 -20 -157 -20 l-158 0 37 25 c44 30 46 30 70 8 15 -14 22 -14 45 -4 l28 13
-29 25 -29 24 27 28 c23 24 25 29 11 35 -25 9 -55 7 -55 -3 0 -16 -38 -23 -60
-11 -15 8 -26 8 -42 -1 l-22 -12 22 -17 c28 -23 28 -26 -8 -45 -38 -20 -40
-19 -40 10 0 24 -2 25 -65 25 -58 0 -65 2 -65 20 0 18 7 20 60 20 57 0 60 1
60 25 0 24 -3 25 -60 25 -52 0 -60 3 -60 18 0 13 12 23 42 31 23 7 53 17 66
22 24 9 24 10 7 29 -22 24 -35 24 -100 0z m140 -270 c18 -20 17 -20 -63 -20
-45 0 -82 2 -82 4 0 2 -3 11 -6 20 -5 14 4 16 63 16 57 0 73 -4 88 -20z"/>
<path d="M9892 3501 l-23 -17 28 -13 c27 -13 27 -14 8 -27 -56 -37 -56 -38
-31 -56 22 -16 25 -16 59 8 35 23 37 23 65 7 25 -15 32 -15 46 -4 15 13 15 16
-5 38 l-22 23 23 24 23 25 -27 7 c-19 4 -33 1 -47 -12 -18 -17 -22 -17 -47 -2
-26 15 -29 15 -50 -1z"/>
<path d="M3817 3493 c-4 -3 -7 -186 -7 -405 l0 -398 35 0 35 0 0 365 0 365 51
0 c58 0 56 15 12 -127 l-25 -82 25 -33 c30 -41 47 -90 47 -137 0 -49 -11 -63
-52 -64 l-35 -1 10 -39 10 -38 49 6 c45 6 52 5 78 -20 l28 -27 53 51 c38 37
61 51 81 51 15 0 28 -5 28 -11 0 -6 -41 -52 -91 -101 l-91 -90 24 -25 24 -24
71 68 c38 37 87 94 108 126 31 47 43 57 66 57 16 0 29 -2 29 -5 0 -21 -61
-117 -101 -160 l-49 -52 26 -24 26 -24 51 56 c29 30 69 90 90 132 29 58 44 77
59 77 19 0 20 -4 13 -77 -10 -113 -16 -123 -66 -123 -41 0 -41 0 -35 -32 3
-17 8 -33 10 -36 2 -2 30 0 61 3 48 6 59 12 75 37 18 30 40 167 40 251 l0 47
-175 0 c-96 0 -175 3 -175 8 0 4 7 15 14 25 12 15 33 17 190 17 l176 0 0 35 0
35 -270 0 -270 0 0 -25 c0 -14 -4 -25 -10 -25 -5 0 -10 7 -10 17 0 9 -13 37
-29 62 l-30 46 44 120 43 120 -31 17 c-24 13 -57 17 -128 18 -53 0 -99 -3
-102 -7z m353 -419 c0 -19 -83 -119 -111 -135 -15 -8 -15 -5 -2 34 8 23 12 57
9 75 l-5 32 55 0 c30 0 54 -3 54 -6z"/>
<path d="M4147 3493 c-4 -3 -7 -71 -7 -150 l0 -143 200 0 200 0 0 150 0 150
-193 0 c-107 0 -197 -3 -200 -7z m313 -83 l0 -30 -120 0 -120 0 0 30 0 30 120
0 120 0 0 -30z m0 -120 l0 -30 -120 0 -120 0 0 30 0 30 120 0 120 0 0 -30z"/>
<path d="M5347 3494 c-4 -4 -7 -104 -7 -223 -1 -295 -21 -380 -117 -482 l-43
-46 30 -28 30 -29 39 38 c46 45 99 139 116 205 l11 46 128 3 127 3 -3 -98 -3
-98 -73 -3 c-65 -3 -73 -5 -67 -20 4 -9 10 -27 12 -39 5 -21 11 -23 75 -23 87
0 125 18 133 63 3 17 4 190 3 382 l-3 350 -191 3 c-104 1 -193 -1 -197 -4z
m311 -147 l3 -68 -118 3 -118 3 -1 60 c0 33 1 64 3 68 3 4 55 6 116 5 l112 -3
3 -68z m-3 -217 l0 -65 -117 -3 -117 -3 4 68 c1 37 3 69 4 71 1 1 52 1 114 0
l112 -3 0 -65z"/>
<path d="M7540 3465 l0 -35 173 0 172 0 -46 -30 -45 -30 -61 22 c-59 22 -61
22 -89 3 l-29 -19 70 -32 70 -32 -110 -4 -110 -3 -3 -232 -2 -233 40 0 40 0 0
70 0 70 65 0 64 0 3 -67 3 -68 38 -3 37 -3 0 70 0 71 71 0 70 0 -3 -37 c-3
-37 -4 -38 -50 -43 l-46 -5 14 -33 c14 -34 14 -34 66 -27 66 9 86 19 93 48 3
12 4 112 3 222 l-3 200 -65 6 c-65 5 -100 15 -100 28 0 3 22 19 48 34 26 16
62 42 81 58 34 28 34 29 16 49 -17 19 -30 20 -247 20 l-228 0 0 -35z m205
-255 c0 -36 -17 -43 -86 -38 -42 3 -44 5 -47 36 l-3 32 68 0 68 0 0 -30z m213
-2 l-3 -33 -65 0 -65 0 -3 33 -3 32 71 0 71 0 -3 -32z m-216 -105 c10 -45 0
-53 -68 -53 -64 0 -64 0 -64 28 0 39 5 42 71 42 46 0 57 -3 61 -17z m218 -18
l0 -35 -70 0 -70 0 0 28 c0 16 3 32 7 35 3 4 35 7 70 7 l63 0 0 -35z"/>
<path d="M1500 3090 l0 -400 40 0 c33 0 40 3 40 20 0 20 7 20 300 20 293 0
300 0 300 -20 0 -17 7 -20 40 -20 l40 0 0 400 0 400 -380 0 -380 0 0 -400z
m516 311 c-21 -23 -15 -36 25 -56 45 -24 35 -35 -30 -35 l-60 0 -3 43 c-3 39
-5 42 -35 45 -33 3 -33 3 -33 -42 l0 -46 -130 0 -130 0 0 -30 0 -30 129 0 c72
0 132 -4 136 -9 3 -5 10 -43 15 -83 5 -41 15 -95 21 -121 12 -44 12 -48 -11
-72 l-25 -27 -6 24 c-3 15 -12 22 -25 21 -43 -4 -239 -34 -242 -37 -1 -2 0
-15 4 -30 7 -31 8 -31 139 -7 121 22 128 20 65 -19 -13 -8 -11 -13 11 -35 l26
-26 53 42 c52 41 54 42 69 23 43 -53 104 -69 133 -36 9 9 21 34 28 55 11 35
10 41 -10 62 -27 29 -40 24 -40 -13 0 -15 -4 -34 -10 -42 -7 -12 -12 -11 -30
5 -41 37 -41 48 -3 120 20 37 42 87 49 110 12 41 11 43 -9 49 -40 11 -45 6
-67 -59 -31 -94 -41 -86 -56 43 l-7 62 92 0 91 0 0 30 c0 26 -4 30 -27 30 -26
0 -26 0 -7 21 18 20 18 21 -6 40 -14 10 -33 21 -42 25 -41 13 -14 25 50 22
l67 -3 3 -302 2 -303 -300 0 -300 0 0 305 0 305 227 0 c223 0 226 0 209 -19z"/>
<path d="M1650 3110 l0 -90 100 0 100 0 0 90 0 90 -100 0 -100 0 0 -90z m140
0 l0 -40 -40 0 -40 0 0 40 0 40 40 0 40 0 0 -40z"/>
<path d="M4960 3165 l0 -315 39 0 c40 0 40 0 43 43 l3 42 113 3 112 3 0 269 0
270 -155 0 -155 0 0 -315z m230 160 l0 -75 -75 0 -75 0 0 75 0 75 75 0 75 0 0
-75z m0 -235 l0 -80 -75 0 -75 0 0 80 0 80 75 0 75 0 0 -80z"/>
<path d="M6283 3268 c-26 -27 -78 -70 -116 -95 l-67 -47 31 -32 c18 -18 37
-30 43 -27 53 31 236 197 236 214 0 3 -18 13 -39 21 l-39 16 -49 -50z"/>
<path d="M6632 3297 l-32 -24 48 -34 c26 -19 79 -64 118 -101 l70 -67 37 26
c20 14 37 29 37 33 0 14 -223 190 -240 190 -3 0 -20 -11 -38 -23z"/>
<path d="M7247 3313 c-4 -3 -7 -21 -7 -40 0 -33 1 -33 45 -33 29 0 45 -4 45
-12 0 -7 -14 -49 -30 -93 -16 -44 -30 -83 -30 -87 0 -5 25 -8 55 -8 55 0 55 0
49 -27 -21 -89 -47 -140 -96 -190 l-51 -52 28 -41 29 -42 19 39 c41 82 61 89
122 42 78 -59 194 -75 459 -64 l175 7 15 45 16 45 -28 -6 c-15 -4 -126 -9
-247 -13 -245 -6 -302 2 -374 55 -20 14 -37 27 -38 27 -1 0 14 45 32 100 19
55 35 110 35 123 0 19 -5 22 -43 22 -24 0 -46 2 -49 5 -3 3 10 47 28 99 18 52
30 97 27 100 -9 8 -178 8 -186 -1z"/>
<path d="M2815 3227 c-16 -5 -31 -11 -33 -12 -2 -2 6 -29 17 -61 11 -33 29
-111 41 -174 12 -63 23 -116 25 -118 2 -2 19 0 39 3 33 7 36 10 36 41 0 45
-68 306 -83 320 -8 8 -21 9 -42 1z"/>
<path d="M3166 3088 c-21 -84 -48 -180 -60 -213 l-21 -60 -228 -3 -227 -2 0
-40 0 -40 410 0 410 0 0 40 0 40 -136 0 c-136 0 -136 0 -131 23 3 12 23 81 45
152 47 152 67 233 61 239 -2 2 -22 7 -45 10 l-40 7 -38 -153z"/>
<path d="M6601 3113 c-29 -61 -82 -132 -98 -133 -16 0 -67 69 -97 128 -20 41
-23 44 -55 38 -18 -3 -36 -7 -38 -10 -11 -10 20 -77 68 -146 35 -52 47 -76 39
-84 -27 -33 -250 -126 -301 -126 -29 0 -32 -18 -8 -53 12 -17 23 -33 24 -35 1
-1 40 9 86 24 84 26 171 66 240 110 l37 23 80 -48 c82 -49 220 -101 269 -101
21 0 33 9 48 33 29 47 29 47 1 47 -29 0 -177 45 -221 68 -16 8 -47 26 -68 39
l-38 24 45 57 c40 52 102 161 94 167 -5 4 -70 25 -77 25 -4 0 -17 -21 -30 -47z"/>
<path d="M9943 3092 l-213 -2 0 -30 0 -30 155 0 c85 0 155 -3 155 -7 -1 -11
-67 -43 -90 -43 -12 0 -20 -8 -22 -22 -3 -23 -5 -23 -180 -26 l-178 -2 0 -30
0 -30 178 -2 177 -3 3 -44 c4 -54 -5 -61 -80 -61 l-58 0 18 -36 c17 -36 17
-36 67 -30 27 3 60 6 73 6 42 0 62 33 62 105 l0 65 175 0 175 0 0 30 0 30
-171 0 c-93 0 -168 4 -165 8 3 5 41 30 85 55 44 26 82 50 85 55 3 5 -5 18 -17
28 -20 18 -38 19 -234 16z"/>
<path d="M1520 2285 c0 -90 1 -95 21 -95 19 0 21 5 17 60 -1 33 -1 60 3 60 3
0 25 -27 50 -60 30 -41 51 -59 67 -60 21 0 22 3 22 95 0 88 -2 95 -20 95 -17
0 -19 -8 -22 -65 l-3 -65 -50 64 c-27 36 -58 65 -67 66 -16 0 -18 -11 -18 -95z"/>
<path d="M1827 2348 c-24 -52 -67 -150 -67 -154 0 -2 9 -4 19 -4 11 0 23 9 26
20 9 29 101 30 110 1 3 -10 17 -21 30 -24 28 -5 29 -4 15 21 -5 9 -25 52 -44
95 -40 88 -63 100 -89 45z m51 -43 c18 -39 15 -45 -19 -45 -26 0 -30 3 -24 18
4 9 10 25 12 35 7 24 18 21 31 -8z"/>
<path d="M1982 2363 c2 -12 14 -19 38 -21 l35 -3 -3 -74 c-3 -73 -3 -75 20
-75 22 0 23 2 20 74 l-4 75 39 3 c27 2 39 8 41 21 3 15 -7 17 -93 17 -86 0
-96 -2 -93 -17z"/>
<path d="M2220 2285 c0 -88 1 -95 20 -95 19 0 20 7 20 95 0 88 -1 95 -20 95
-19 0 -20 -7 -20 -95z"/>
<path d="M2356 2349 c-55 -65 -22 -155 60 -166 104 -14 166 96 95 168 -25 24
-38 29 -79 29 -44 0 -54 -4 -76 -31z m125 -20 c28 -28 22 -76 -12 -102 -43
-32 -99 -2 -99 54 0 60 69 90 111 48z"/>
<path d="M2607 2373 c-4 -3 -7 -46 -7 -95 0 -81 2 -88 20 -88 18 0 20 7 20 60
0 33 3 60 8 60 4 -1 27 -27 52 -60 30 -40 52 -59 67 -60 21 0 22 3 20 92 -2
79 -5 93 -19 96 -14 3 -18 -7 -20 -63 l-3 -67 -53 66 c-49 62 -69 76 -85 59z"/>
<path d="M2926 2371 c-8 -12 -76 -172 -76 -177 0 -14 40 0 45 16 5 16 15 20
55 20 40 0 50 -4 55 -20 4 -11 15 -20 26 -20 24 0 22 8 -27 116 -25 55 -38 74
-53 74 -11 0 -22 -4 -25 -9z m43 -72 c6 -18 11 -34 11 -35 0 -2 -13 -4 -30 -4
-16 0 -30 2 -30 4 0 14 24 66 30 66 4 0 13 -14 19 -31z"/>
<path d="M3110 2285 l0 -95 74 0 c56 0 75 4 80 15 4 12 -5 15 -54 15 l-60 0 0
80 c0 73 -2 80 -20 80 -19 0 -20 -7 -20 -95z"/>
<path d="M3515 2353 c10 -16 29 -44 42 -63 12 -19 23 -49 23 -67 0 -26 4 -33
20 -33 17 0 20 7 20 40 0 30 9 55 35 93 30 44 33 53 18 56 -9 2 -25 -7 -34
-20 -49 -67 -42 -65 -72 -20 -18 26 -35 41 -48 41 -21 0 -21 -1 -4 -27z"/>
<path d="M3786 2371 c-8 -12 -76 -172 -76 -177 0 -14 40 0 45 16 5 16 15 20
55 20 40 0 50 -4 55 -20 4 -11 15 -20 26 -20 24 0 22 11 -27 118 -25 54 -38
72 -53 72 -11 0 -22 -4 -25 -9z m43 -72 c6 -18 11 -34 11 -35 0 -2 -13 -4 -30
-4 -33 0 -36 7 -18 45 15 33 24 32 37 -6z"/>
<path d="M3970 2285 c0 -88 2 -95 20 -95 16 0 19 8 22 63 l3 62 49 -62 c35
-44 56 -63 72 -63 22 0 23 2 21 92 -2 80 -5 93 -19 96 -16 3 -18 -5 -18 -62 0
-36 -3 -66 -7 -66 -5 1 -29 30 -56 65 -30 42 -55 65 -67 65 -19 0 -20 -7 -20
-95z"/>
<path d="M4267 2369 c-9 -5 -24 -23 -32 -39 -50 -97 40 -178 154 -139 28 10
31 15 31 55 l0 44 -45 0 c-33 0 -45 -4 -45 -15 0 -9 9 -15 25 -15 34 0 35 -35
1 -44 -47 -12 -96 21 -96 66 0 53 69 90 100 53 16 -19 50 -20 50 -1 0 37 -98
61 -143 35z"/>
<path d="M4680 2285 c0 -78 3 -95 15 -95 12 0 15 13 15 55 0 30 4 55 8 55 5 0
19 -25 31 -55 31 -74 51 -73 88 3 l28 57 3 -57 c2 -43 7 -58 17 -58 12 0 15
17 15 85 0 47 1 88 3 93 1 4 -8 8 -20 10 -18 3 -27 -8 -56 -70 l-35 -73 -33
72 c-27 59 -38 73 -56 73 -22 0 -23 -3 -23 -95z"/>
<path d="M4980 2285 c0 -88 1 -95 20 -95 19 0 20 7 20 95 0 88 -1 95 -20 95
-19 0 -20 -7 -20 -95z"/>
<path d="M5097 2373 c-4 -3 -7 -46 -7 -95 0 -81 2 -88 20 -88 18 0 20 7 20 60
0 33 3 60 8 59 4 0 27 -27 52 -59 31 -42 52 -59 68 -60 22 0 23 2 20 92 -3 78
-6 93 -20 96 -14 3 -18 -7 -20 -65 l-3 -67 -53 67 c-50 63 -69 76 -85 60z"/>
<path d="M5383 2365 c-32 -23 -47 -77 -33 -120 19 -57 85 -80 159 -54 28 10
31 15 31 55 l0 44 -45 0 c-33 0 -45 -4 -45 -15 0 -9 9 -15 25 -15 34 0 35 -35
1 -44 -35 -9 -75 9 -86 39 -24 62 49 125 94 80 19 -19 46 -19 46 -1 0 40 -103
62 -147 31z"/>
<path d="M5827 2360 c-52 -41 -40 -148 20 -171 40 -15 104 -5 125 21 35 43 8
56 -41 19 -34 -25 -64 -19 -87 17 -42 63 41 139 91 84 21 -24 45 -26 45 -5 0
52 -102 75 -153 35z"/>
<path d="M6050 2285 c0 -88 1 -95 20 -95 17 0 20 7 20 40 l0 40 50 0 50 0 0
-40 c0 -35 3 -40 23 -40 21 0 22 3 20 92 -1 83 -3 93 -20 93 -14 0 -19 -9 -21
-37 l-3 -38 -50 0 -49 0 0 40 c0 33 -3 40 -20 40 -19 0 -20 -7 -20 -95z"/>
<path d="M6310 2285 c0 -88 1 -95 20 -95 19 0 20 7 20 95 0 88 -1 95 -20 95
-19 0 -20 -7 -20 -95z"/>
<path d="M6474 2345 c-8 -20 -26 -61 -39 -92 -30 -67 -30 -63 -6 -63 11 0 23
9 26 20 5 16 15 20 55 20 40 0 50 -4 55 -20 4 -13 15 -20 31 -20 20 0 23 3 14
18 -5 9 -25 52 -44 95 -28 61 -39 77 -56 77 -15 0 -26 -11 -36 -35z m54 -40
c18 -39 15 -45 -19 -45 -26 0 -30 3 -24 18 4 9 10 25 12 35 7 24 18 21 31 -8z"/>
<path d="M6687 2355 c-64 -65 -20 -175 71 -175 97 0 148 105 83 171 -25 24
-38 29 -79 29 -39 0 -54 -5 -75 -25z m118 -20 c28 -22 26 -82 -5 -107 -45 -36
-100 -4 -100 58 0 54 60 82 105 49z"/>
<path d="M7110 2360 c0 -16 7 -20 35 -20 l35 0 0 -75 c0 -68 2 -75 20 -75 18
0 20 7 20 75 l0 75 35 0 c28 0 35 4 35 20 0 19 -7 20 -90 20 -83 0 -90 -1 -90
-20z"/>
<path d="M7350 2301 c0 -74 2 -81 26 -100 47 -37 122 -23 143 27 7 16 11 55 9
88 -3 51 -6 59 -23 59 -17 0 -19 -7 -18 -63 1 -51 -3 -68 -18 -83 -23 -23 -38
-24 -64 -5 -15 11 -20 30 -23 85 -3 52 -8 71 -18 71 -11 0 -14 -18 -14 -79z"/>
<path d="M7600 2285 c0 -88 2 -95 20 -95 16 0 19 8 22 61 l3 62 48 -62 c30
-37 56 -61 68 -61 17 0 19 8 19 96 0 86 -2 95 -17 92 -14 -3 -18 -15 -19 -58
-1 -30 -2 -59 -3 -64 -1 -5 -25 21 -53 57 -29 37 -61 67 -70 67 -16 0 -18 -11
-18 -95z"/>
<path d="M7876 2349 c-35 -41 -35 -97 -2 -136 22 -25 31 -28 84 -28 73 1 92
14 92 66 l0 39 -45 0 c-33 0 -45 -4 -45 -15 0 -9 9 -15 25 -15 18 0 25 -5 25
-19 0 -38 -87 -35 -112 3 -14 21 -8 66 12 86 24 24 63 26 80 5 13 -16 50 -21
50 -7 0 5 -10 18 -23 30 -17 16 -36 22 -69 22 -39 0 -50 -5 -72 -31z"/>
<path d="M8307 2373 c-13 -12 -7 -124 8 -152 23 -46 97 -56 139 -18 22 19 26
31 27 97 2 70 1 75 -19 78 -21 3 -22 0 -22 -72 0 -64 -3 -77 -19 -86 -28 -14
-38 -13 -61 10 -16 16 -20 33 -20 85 0 47 -4 65 -13 65 -8 0 -17 -3 -20 -7z"/>
<path d="M8560 2285 c0 -88 2 -95 20 -95 17 0 19 6 17 60 -2 33 0 60 3 60 3 0
26 -27 51 -60 30 -41 51 -59 67 -60 21 0 22 3 22 95 0 88 -2 95 -20 95 -17 0
-19 -8 -22 -67 l-3 -66 -50 66 c-28 37 -58 67 -67 67 -16 0 -18 -11 -18 -95z"/>
<path d="M8817 2373 c-4 -3 -7 -46 -7 -95 0 -81 2 -88 20 -88 19 0 20 7 20 95
0 72 -3 95 -13 95 -8 0 -17 -3 -20 -7z"/>
<path d="M8931 2328 c12 -29 28 -72 37 -95 14 -36 21 -43 43 -43 24 0 30 9 63
88 20 48 36 90 36 95 0 4 -9 7 -19 7 -15 0 -26 -17 -46 -70 -15 -38 -30 -70
-33 -70 -4 0 -18 31 -32 68 -20 53 -30 68 -48 70 l-22 3 21 -53z"/>
<path d="M9170 2285 l0 -95 80 0 c64 0 80 3 80 15 0 12 -13 15 -60 15 -57 0
-60 1 -60 25 0 24 3 25 55 25 42 0 55 3 55 15 0 12 -13 15 -55 15 -48 0 -55 2
-55 20 0 18 7 20 55 20 48 0 55 2 55 20 0 18 -7 20 -75 20 l-75 0 0 -95z"/>
<path d="M9395 2370 c-3 -6 -5 -48 -4 -95 3 -74 6 -85 21 -85 14 0 18 8 18 35
0 32 3 35 28 35 21 0 32 -8 47 -32 22 -39 33 -48 51 -41 9 3 7 13 -8 39 -19
33 -19 36 -3 53 24 27 16 72 -15 88 -30 15 -126 17 -135 3z m113 -29 c8 -5 12
-17 10 -27 -2 -14 -13 -20 -46 -22 -39 -3 -42 -1 -42 21 0 13 3 27 7 30 9 10
55 8 71 -2z"/>
<path d="M9642 2364 c-29 -20 -29 -59 1 -78 12 -8 41 -17 64 -21 50 -8 63 -23
38 -42 -26 -19 -52 -16 -75 7 -37 37 -67 17 -37 -24 9 -12 31 -20 63 -23 40
-4 54 -1 77 17 15 12 27 29 27 39 0 23 -28 48 -62 55 -16 3 -39 8 -53 11 -14
3 -25 12 -25 20 0 21 39 29 81 15 46 -16 59 -8 34 20 -23 25 -100 27 -133 4z"/>
<path d="M9860 2285 c0 -88 1 -95 20 -95 19 0 20 7 20 95 0 88 -1 95 -20 95
-19 0 -20 -7 -20 -95z"/>
<path d="M9960 2360 c0 -16 7 -20 35 -20 l35 0 0 -75 c0 -68 2 -75 20 -75 18
0 20 7 20 75 l0 75 35 0 c28 0 35 4 35 20 0 19 -7 20 -90 20 -83 0 -90 -1 -90
-20z"/>
<path d="M10170 2372 c0 -5 16 -31 35 -58 25 -35 35 -60 35 -86 0 -31 4 -38
20 -38 16 0 20 7 20 35 0 24 11 53 35 88 39 57 42 67 21 67 -14 0 -38 -26 -62
-66 -10 -17 -14 -14 -39 24 -16 24 -35 42 -46 42 -11 0 -19 -4 -19 -8z"/>
</g>
</svg>
