<?xml version="1.0" standalone="no"?>
<!DOCTYPE svg PUBLIC "-//W3C//DTD SVG 20010904//EN"
 "http://www.w3.org/TR/2001/REC-SVG-20010904/DTD/svg10.dtd">
<svg version="1.0" xmlns="http://www.w3.org/2000/svg"
 width="300.000000pt" height="300.000000pt" viewBox="0 0 300.000000 300.000000"
 preserveAspectRatio="xMidYMid meet">

<g transform="translate(0.000000,300.000000) scale(0.100000,-0.100000)"
fill="#000000" stroke="none">
<path d="M1597 2848 c-16 -78 -33 -148 -38 -154 -6 -8 -4 -14 7 -18 41 -16 50
-8 62 62 23 136 44 212 58 212 24 0 64 -23 69 -40 11 -34 -12 -69 -50 -76 -19
-3 -37 -10 -40 -14 -6 -9 69 -165 84 -175 7 -3 25 -10 41 -15 l30 -9 -24 32
c-25 34 -76 131 -76 144 0 4 15 15 33 23 17 8 39 27 47 43 13 24 13 30 0 55
-18 32 -68 58 -130 67 l-45 6 -28 -143z"/>
<path d="M1325 2975 c-5 -2 -35 -6 -67 -10 -56 -6 -56 -6 -48 -35 4 -15 14
-85 21 -155 l13 -127 66 6 c106 11 117 15 123 42 5 28 7 28 -29 9 -16 -8 -48
-15 -70 -15 -38 0 -42 2 -48 31 -3 17 -6 44 -6 60 0 27 3 29 40 29 41 0 46 5
31 28 -5 9 -19 11 -43 7 -35 -7 -35 -7 -42 36 -8 51 2 61 62 57 38 -3 42 -1
42 19 0 22 -16 28 -45 18z"/>
<path d="M954 2908 c-21 -9 -21 -11 -5 -27 15 -15 68 -227 59 -236 -2 -2 -46
38 -99 89 -84 80 -99 91 -118 82 -21 -9 -29 -26 -12 -26 10 0 66 -228 59 -236
-3 -2 -49 37 -102 87 -94 89 -98 91 -124 79 -26 -12 -26 -13 -7 -24 11 -6 60
-50 110 -97 94 -90 120 -109 153 -109 19 0 19 3 -4 113 -13 61 -23 116 -24
120 0 4 38 -26 85 -68 58 -51 93 -75 110 -75 14 0 25 2 25 4 0 3 -16 77 -35
165 -19 88 -35 162 -35 165 0 8 -11 6 -36 -6z"/>
<path d="M2016 2859 c-45 -35 -35 -86 31 -163 82 -97 -11 -161 -102 -71 -31
32 -33 33 -39 12 -7 -27 9 -46 59 -68 59 -27 120 -25 150 6 14 13 25 35 25 48
0 24 -30 75 -76 130 -61 73 12 120 88 57 30 -25 37 -27 42 -14 10 27 7 32 -46
58 -63 31 -97 33 -132 5z"/>
<path d="M2312 2643 c-11 -99 -14 -108 -48 -150 -20 -25 -43 -47 -51 -50 -10
-4 -4 -12 19 -30 l33 -24 6 25 c4 13 20 41 35 61 25 31 43 40 132 67 56 18
102 35 102 39 0 4 -12 14 -26 24 -23 15 -27 15 -37 1 -7 -9 -38 -24 -69 -35
l-58 -20 7 88 c5 81 4 90 -14 99 -18 10 -20 5 -31 -95z"/>
<path d="M435 2540 c-19 -19 -24 -30 -14 -30 8 0 62 -47 121 -104 l108 -103
22 24 c13 14 17 23 8 23 -16 0 -199 178 -209 203 -6 16 -10 14 -36 -13z"/>
<path d="M2597 2474 c-3 -4 7 -20 24 -36 16 -17 28 -35 26 -42 -3 -9 -128
-104 -205 -156 -21 -14 -22 -16 -7 -38 l17 -23 32 28 c61 54 196 144 206 138
6 -3 17 -19 25 -36 15 -28 38 -38 49 -21 3 5 -25 50 -61 100 -60 83 -87 105
-106 86z"/>
<path d="M266 2349 c-15 -26 -15 -27 12 -33 42 -9 199 -104 182 -110 -8 -2
-71 -12 -140 -21 -167 -21 -165 -21 -178 -50 -10 -22 -9 -25 10 -25 26 0 206
-103 234 -134 l21 -24 17 29 c16 27 16 29 1 29 -18 0 -204 101 -205 111 0 3
57 13 128 23 144 20 212 35 212 46 0 5 -51 37 -112 71 -62 35 -125 75 -139 89
l-27 26 -16 -27z"/>
<path d="M1735 2310 c-10 -11 -16 -22 -14 -24 2 -2 12 7 22 20 22 29 17 32 -8
4z"/>
<path d="M1567 2183 c-15 -4 -15 -7 8 -25 14 -11 27 -19 29 -17 2 2 9 14 15
27 11 20 9 22 -11 21 -13 -1 -31 -3 -41 -6z"/>
<path d="M2825 2131 c-15 -14 -237 -101 -257 -101 -24 0 -23 -3 15 -95 30 -71
37 -80 63 -83 27 -4 28 -3 12 15 -20 22 -48 85 -48 108 0 13 32 32 87 49 18 6
23 1 33 -29 7 -20 17 -34 23 -32 13 4 13 17 3 58 -7 23 -3 27 33 41 39 16 42
15 51 -2 6 -10 13 -35 18 -55 6 -32 9 -35 25 -23 17 13 17 17 -10 86 -29 74
-32 78 -48 63z"/>
<path d="M1742 2080 c0 -14 2 -19 5 -12 2 6 2 18 0 25 -3 6 -5 1 -5 -13z"/>
<path d="M1701 2064 c0 -11 3 -14 6 -6 3 7 2 16 -1 19 -3 4 -6 -2 -5 -13z"/>
<path d="M1660 2056 c0 -8 4 -17 9 -20 5 -4 7 3 4 14 -6 23 -13 26 -13 6z"/>
<path d="M1722 1925 c0 -16 2 -22 5 -12 2 9 2 23 0 30 -3 6 -5 -1 -5 -18z"/>
<path d="M1792 1900 c0 -14 2 -19 5 -12 2 6 2 18 0 25 -3 6 -5 1 -5 -13z"/>
<path d="M56 1897 c-15 -46 -14 -58 1 -53 28 11 230 -35 250 -56 32 -36 17
-104 -29 -129 -16 -9 -160 13 -245 37 -19 5 -23 2 -23 -14 0 -11 -3 -27 -6
-35 -4 -12 0 -14 14 -10 11 2 68 -5 126 -17 121 -24 162 -19 192 28 18 28 24
105 10 135 -6 12 -4 17 7 17 8 0 17 11 19 25 5 22 2 25 -27 25 -38 0 -230 37
-263 50 -16 7 -24 6 -26 -3z"/>
<path d="M2919 1803 c5 -10 11 -31 12 -48 l4 -30 -143 -20 c-142 -20 -143 -20
-140 -45 2 -16 8 -24 18 -21 40 9 266 38 273 34 4 -2 7 -24 7 -49 0 -38 3 -44
21 -44 19 0 21 4 16 38 -3 20 -11 74 -18 120 -11 77 -13 82 -36 82 -19 0 -22
-3 -14 -17z"/>
<path d="M1369 1688 c-23 -29 -84 -112 -135 -185 -52 -72 -107 -141 -124 -153
-76 -54 -160 -72 -160 -34 0 8 7 59 15 115 17 114 22 224 11 256 -10 31 -29
34 -149 24 -114 -10 -154 -25 -189 -72 -19 -25 -41 -99 -33 -108 3 -2 45 8 95
23 96 30 135 29 145 -3 3 -11 -1 -57 -10 -102 -20 -109 -19 -195 3 -239 13
-27 27 -37 62 -48 100 -29 187 1 295 103 38 36 72 62 76 58 4 -5 12 -50 17
-102 11 -104 26 -134 83 -164 28 -15 50 -18 130 -14 103 5 168 26 202 65 22
24 46 87 47 119 l0 22 -52 -27 c-42 -22 -69 -28 -135 -31 -46 -1 -95 0 -109 3
l-26 7 5 162 c5 183 20 244 68 279 l29 22 -37 38 c-51 52 -73 50 -124 -14z"/>
<path d="M2120 1712 c-160 -53 -297 -150 -346 -244 -29 -56 -16 -132 39 -221
60 -96 77 -137 77 -186 0 -86 -113 -193 -257 -242 -57 -20 -88 -24 -189 -24
-114 0 -123 2 -179 30 -36 19 -72 46 -91 72 l-32 42 -10 -27 c-6 -15 -13 -55
-17 -89 -5 -57 -4 -65 17 -86 64 -64 184 -107 298 -107 165 1 357 80 479 198
132 128 152 227 76 372 -21 41 -47 91 -57 111 -10 20 -22 53 -25 73 -5 34 -2
40 40 80 60 58 183 107 285 114 67 4 75 3 98 -19 l25 -24 19 25 c40 53 30 97
-33 144 -38 28 -143 32 -217 8z"/>
<path d="M253 1199 c-33 -12 -51 -48 -59 -117 -8 -77 -29 -108 -67 -98 -36 9
-60 57 -55 111 3 41 2 42 -21 32 -20 -10 -22 -17 -18 -48 11 -82 67 -149 125
-149 37 0 70 41 77 96 9 72 24 121 38 127 39 14 77 -32 77 -94 0 -31 6 -35 30
-20 12 8 12 17 -3 64 -24 77 -73 115 -124 96z"/>
<path d="M2647 1163 c-3 -15 -5 -28 -4 -28 34 -3 277 -72 289 -82 14 -13 17
-12 21 4 3 10 8 28 11 39 6 18 3 21 -16 17 -20 -3 -232 51 -279 71 -12 5 -18
0 -22 -21z"/>
<path d="M2595 1007 c-15 -23 -15 -29 -4 -44 8 -9 26 -43 40 -77 l26 -61 89 3
c90 4 119 12 141 41 19 24 15 31 -10 22 -20 -8 -181 -26 -196 -23 -2 0 -18 38
-36 83 l-32 83 -18 -27z"/>
<path d="M427 903 c-4 -3 1 -12 11 -19 23 -16 77 -93 70 -99 -3 -3 -78 -8
-167 -12 -128 -5 -161 -9 -157 -19 3 -8 33 -54 66 -104 49 -73 65 -90 85 -90
28 0 34 15 10 24 -8 3 -33 34 -56 68 l-40 63 63 6 c35 4 109 7 166 8 56 0 102
4 102 7 0 4 -26 44 -57 90 -52 77 -77 97 -96 77z"/>
<path d="M2504 859 c-8 -17 -11 -28 -6 -25 11 7 240 -126 258 -150 10 -12 15
-9 32 21 l21 35 -21 0 c-23 0 -218 111 -239 136 -17 21 -27 17 -45 -17z"/>
<path d="M2388 723 c-43 -47 -58 -76 -58 -110 0 -73 67 -92 162 -48 81 38 118
30 118 -25 0 -35 -24 -66 -67 -89 -36 -18 -36 -19 -15 -30 29 -16 64 8 97 64
33 55 33 108 0 140 -31 32 -41 31 -127 -5 -77 -33 -98 -36 -116 -18 -22 22
-13 50 27 88 29 28 36 41 28 49 -16 16 -20 14 -49 -16z"/>
<path d="M582 609 c-109 -54 -131 -172 -50 -265 43 -49 82 -68 109 -53 20 10
19 13 -27 39 -58 33 -75 58 -76 109 -1 116 115 182 196 110 19 -16 38 -39 41
-50 8 -24 17 -24 32 0 16 25 -12 62 -76 102 -54 34 -91 36 -149 8z"/>
<path d="M2053 593 c-15 -5 -17 -41 -4 -61 6 -10 11 -1 19 27 10 41 8 44 -15
34z"/>
<path d="M2232 552 c-22 -15 -23 -15 -4 -36 27 -29 123 -186 114 -186 -4 0
-73 25 -152 55 -126 49 -148 54 -168 44 l-22 -13 23 -25 c33 -36 137 -214 137
-234 0 -14 4 -15 25 -5 25 11 34 28 16 28 -5 0 -37 45 -70 100 -33 55 -57 100
-53 100 4 0 72 -25 152 -55 135 -51 180 -64 180 -49 0 3 -33 62 -74 129 -41
68 -76 132 -78 143 -3 18 -5 19 -26 4z"/>
<path d="M898 456 c-25 -19 -22 -26 10 -26 25 0 112 -34 112 -43 0 -2 -63 -46
-140 -97 l-140 -93 116 -54 116 -55 21 21 21 21 -28 0 c-15 0 -57 14 -92 32
-50 25 -61 35 -52 43 7 7 68 47 136 90 67 42 122 81 122 85 0 6 -127 68 -175
86 -5 2 -18 -3 -27 -10z"/>
<path d="M1837 373 c-13 -3 -16 -10 -11 -21 17 -40 74 -248 74 -270 0 -21 3
-23 33 -17 41 9 41 9 24 37 -16 24 -77 232 -77 261 0 17 -9 19 -43 10z"/>
<path d="M1200 317 c0 -40 -38 -234 -51 -259 -7 -14 -1 -18 41 -27 100 -22
130 -24 145 -11 23 19 18 33 -10 26 -14 -4 -46 -1 -71 5 l-46 12 7 50 c3 28 8
54 11 59 7 11 42 10 65 -2 16 -9 19 -7 19 9 0 15 -9 22 -35 27 -37 7 -42 21
-29 72 7 26 44 30 87 8 15 -8 27 -11 27 -6 0 4 2 15 6 23 4 11 -10 17 -58 26
-35 7 -73 15 -85 18 -21 5 -23 1 -23 -30z"/>
<path d="M1587 329 c-81 -19 -117 -69 -117 -161 0 -63 24 -109 72 -138 72 -43
199 -32 206 19 3 20 1 23 -15 16 -10 -4 -36 -12 -59 -18 -55 -13 -103 10 -134
64 -26 48 -24 117 5 149 27 30 84 44 128 32 35 -10 37 -9 37 13 0 34 -44 43
-123 24z"/>
</g>
</svg>
