<?xml version="1.0" standalone="no"?>
<!DOCTYPE svg PUBLIC "-//W3C//DTD SVG 20010904//EN"
 "http://www.w3.org/TR/2001/REC-SVG-20010904/DTD/svg10.dtd">
<svg version="1.0" xmlns="http://www.w3.org/2000/svg"
 width="314.000000pt" height="270.000000pt" viewBox="0 0 314.000000 270.000000"
 preserveAspectRatio="xMidYMid meet">

<g transform="translate(0.000000,270.000000) scale(0.100000,-0.100000)"
fill="#000000" stroke="none">
<path d="M1082 2235 c-133 -190 -242 -350 -242 -356 0 -6 108 -165 241 -355
l241 -344 234 0 234 0 -107 153 c-59 83 -169 241 -245 349 l-139 198 72 102
c40 57 135 193 212 303 77 110 155 221 174 248 l35 47 -235 0 -234 0 -241
-345z"/>
<path d="M2513 978 c-28 -13 -28 -15 -3 -53 33 -49 27 -65 -24 -65 -37 0 -45
3 -50 23 -3 12 -18 37 -34 56 -22 27 -33 32 -50 27 -28 -9 -28 -20 3 -60 14
-18 25 -36 25 -39 0 -4 -22 -7 -50 -7 l-50 0 0 -65 0 -65 30 0 c29 0 30 1 30
50 l0 50 215 0 215 0 0 -50 c0 -49 1 -50 30 -50 l30 0 0 65 0 65 -45 0 c-25 0
-45 4 -45 8 0 5 13 26 29 47 l29 40 -31 13 c-26 11 -32 10 -39 -2 -32 -57 -76
-101 -104 -104 -24 -2 -30 1 -31 18 -2 18 -49 111 -56 109 -1 0 -12 -5 -24
-11z"/>
<path d="M376 969 c-23 -78 -33 -94 -60 -97 -20 -3 -26 -8 -22 -19 3 -8 6 -16
6 -17 0 -1 26 1 58 5 106 13 180 11 190 -7 7 -13 13 -14 31 -5 27 15 27 20 -7
67 -40 55 -53 63 -80 53 -24 -9 -23 -18 5 -50 12 -14 8 -17 -39 -22 -28 -4
-53 -5 -55 -3 -2 1 8 24 21 49 13 27 19 47 12 47 -6 0 -21 3 -33 6 -15 4 -24
1 -27 -7z"/>
<path d="M620 886 c0 -87 2 -96 22 -110 33 -24 179 -22 206 2 21 18 39 72 23
72 -5 0 -16 3 -25 6 -11 4 -17 -4 -24 -28 l-8 -33 -65 0 -64 0 -3 36 -3 35 76
24 c82 26 92 32 72 48 -8 7 -28 3 -67 -13 -30 -14 -61 -24 -67 -25 -17 0 -17
52 -1 68 9 9 3 12 -30 12 l-42 0 0 -94z"/>
<path d="M1210 900 l0 -79 -122 -3 c-101 -3 -123 -6 -123 -18 0 -12 20 -16
108 -18 l107 -3 -21 -41 c-21 -41 -127 -154 -181 -193 -25 -18 -26 -22 -13
-39 12 -16 19 -17 38 -9 37 17 136 113 173 167 l34 51 0 -83 0 -82 -60 0 c-47
0 -60 -3 -60 -15 0 -12 13 -15 60 -15 l60 0 0 -70 0 -70 35 0 35 0 0 70 0 70
60 0 c47 0 60 3 60 15 0 12 -13 15 -60 15 l-60 0 0 87 0 87 28 -45 c37 -56
107 -129 162 -165 l42 -28 19 23 19 23 -42 28 c-48 30 -154 140 -181 188 l-18
32 110 0 c104 0 111 1 111 20 0 19 -7 20 -126 20 l-126 0 4 80 3 80 -37 0 -38
0 0 -80z"/>
<path d="M1868 883 l-3 -98 -122 -3 c-100 -2 -123 -5 -123 -17 0 -12 21 -15
120 -15 l120 0 -6 -27 c-25 -103 -112 -218 -199 -264 -25 -13 -45 -27 -45 -30
0 -3 9 -14 21 -25 20 -18 21 -18 64 5 64 34 140 116 177 191 l33 66 23 -50
c37 -80 95 -150 163 -195 l63 -42 22 28 22 28 -56 30 c-78 42 -148 134 -188
247 l-13 38 124 0 c104 0 125 2 125 15 0 13 -21 15 -130 15 l-130 0 0 88 c0
55 4 92 12 100 9 9 3 12 -30 12 l-41 0 -3 -97z"/>
<path d="M317 803 c-4 -3 -7 -66 -7 -140 l0 -133 35 0 35 0 0 50 0 50 60 0 60
0 0 -30 c0 -28 -3 -30 -35 -30 -32 0 -35 -2 -25 -20 9 -17 17 -19 58 -14 26 4
53 13 60 22 8 11 12 54 12 134 l0 118 -123 0 c-68 0 -127 -3 -130 -7z m183
-48 c0 -24 -3 -25 -60 -25 -57 0 -60 1 -60 25 0 24 3 25 60 25 57 0 60 -1 60
-25z m0 -75 l0 -30 -60 0 -60 0 0 30 0 30 60 0 60 0 0 -30z"/>
<path d="M620 657 c0 -59 4 -97 12 -105 8 -8 49 -12 120 -12 96 0 108 2 118
19 17 32 12 57 -15 69 -22 10 -25 9 -25 -9 0 -45 -18 -59 -74 -59 -61 0 -79
14 -74 56 3 26 10 31 86 55 71 22 81 28 67 39 -13 10 -25 9 -71 -9 -31 -11
-62 -21 -70 -21 -18 0 -19 56 -1 63 6 3 -7 6 -30 6 l-43 1 0 -93z"/>
<path d="M2380 735 c0 -12 24 -15 135 -17 l136 -3 -43 -27 c-23 -16 -52 -28
-65 -28 -20 0 -23 -5 -23 -40 l0 -40 -125 0 c-104 0 -125 -2 -125 -15 0 -13
21 -15 125 -15 l125 0 0 -70 0 -70 -61 0 c-54 0 -60 -2 -49 -15 15 -18 107
-21 144 -4 28 13 36 35 36 107 l0 52 125 0 c104 0 125 2 125 15 0 13 -21 15
-125 15 -124 0 -125 0 -125 23 0 17 13 32 48 55 63 41 103 78 95 86 -3 3 -84
6 -180 6 -146 0 -173 -2 -173 -15z"/>
<path d="M360 501 c0 -5 -15 -30 -34 -54 l-34 -45 30 -13 c27 -11 32 -10 45 7
19 25 55 95 51 99 -11 9 -58 14 -58 6z"/>
<path d="M772 499 c-15 -6 -20 -13 -15 -22 31 -48 67 -97 72 -97 3 1 16 6 28
13 l23 13 -35 52 c-38 56 -38 56 -73 41z"/>
<path d="M629 493 c-16 -4 -16 -8 -1 -54 13 -40 20 -49 39 -49 31 0 36 17 20
65 -14 39 -26 47 -58 38z"/>
<path d="M484 474 c3 -9 6 -31 6 -50 0 -31 3 -34 30 -34 32 0 36 9 24 69 -6
26 -11 31 -36 31 -23 0 -29 -4 -24 -16z"/>
<path d="M300 210 c0 -83 1 -90 20 -90 17 0 20 7 20 43 l0 42 28 -42 c18 -30
34 -43 50 -43 29 0 28 3 -10 56 l-31 44 32 40 c31 39 31 40 9 40 -14 0 -34
-13 -50 -32 l-27 -33 -1 33 c0 25 -4 32 -20 32 -19 0 -20 -7 -20 -90z"/>
<path d="M1680 226 c0 -66 3 -77 22 -90 29 -20 77 -20 106 0 19 13 22 24 22
90 0 67 -2 74 -20 74 -17 0 -19 -8 -22 -72 l-3 -73 -30 0 -30 0 -3 73 c-3 64
-5 72 -22 72 -18 0 -20 -7 -20 -74z"/>
<path d="M2010 285 c0 -8 9 -15 20 -15 11 0 20 7 20 15 0 8 -9 15 -20 15 -11
0 -20 -7 -20 -15z"/>
<path d="M2570 285 c0 -8 9 -15 20 -15 11 0 20 7 20 15 0 8 -9 15 -20 15 -11
0 -20 -7 -20 -15z"/>
<path d="M1367 260 c-19 -22 -22 -40 -8 -40 6 0 11 -21 13 -47 3 -44 5 -48 31
-51 26 -3 37 11 17 23 -17 10 -12 75 5 75 8 0 15 5 15 10 0 6 -7 13 -15 16 -8
4 -15 12 -15 20 0 20 -23 17 -43 -6z"/>
<path d="M2647 260 c-19 -22 -22 -40 -8 -40 6 0 11 -21 13 -47 3 -44 5 -48 31
-51 15 -2 27 1 27 7 0 6 -4 11 -10 11 -5 0 -10 18 -10 40 0 22 5 40 10 40 6 0
10 7 10 15 0 8 -4 15 -10 15 -5 0 -10 7 -10 15 0 21 -22 19 -43 -5z"/>
<path d="M460 197 c0 -31 5 -59 13 -65 6 -6 33 -10 60 -10 l47 0 0 64 c0 57
-2 64 -20 64 -17 0 -20 -7 -20 -50 0 -27 -4 -50 -10 -50 -5 0 -13 0 -17 0 -5
0 -10 21 -13 47 -4 35 -10 49 -22 51 -15 3 -18 -5 -18 -51z"/>
<path d="M610 184 c0 -57 2 -64 19 -64 17 0 20 8 23 47 2 36 7 49 21 51 14 3
17 -4 17 -47 0 -44 3 -51 19 -51 17 0 20 8 23 47 2 36 7 49 21 51 14 3 17 -4
17 -47 0 -44 3 -51 20 -51 17 0 20 7 20 53 0 29 -5 58 -12 65 -15 15 -54 16
-63 2 -4 -6 -13 -7 -23 -1 -9 5 -36 9 -59 9 l-43 1 0 -65z"/>
<path d="M852 238 c-7 -7 -12 -16 -12 -20 0 -12 38 -10 45 2 7 12 25 4 25 -11
0 -5 -11 -9 -24 -9 -30 0 -49 -22 -44 -52 3 -20 9 -23 56 -24 l52 -2 0 54 c0
42 -4 55 -19 64 -26 14 -64 13 -79 -2z m58 -72 c0 -8 -5 -18 -11 -22 -14 -8
-33 11 -25 25 10 16 36 13 36 -3z"/>
<path d="M980 183 c0 -56 2 -63 20 -63 17 0 20 7 20 50 0 43 3 50 20 50 17 0
20 -7 20 -50 0 -43 3 -50 20 -50 17 0 20 7 20 50 0 43 3 50 20 50 17 0 20 -7
20 -50 0 -43 3 -50 20 -50 18 0 20 7 20 54 0 66 -17 85 -61 69 -16 -6 -31 -7
-34 -3 -3 5 -28 8 -55 8 l-50 -1 0 -64z"/>
<path d="M1227 232 c-21 -23 -22 -76 -1 -96 19 -20 64 -21 89 -2 24 17 24 69
0 96 -23 25 -67 26 -88 2z m68 -32 c7 -21 -10 -60 -26 -60 -13 0 -27 40 -21
62 6 24 39 23 47 -2z"/>
<path d="M1470 230 c-41 -41 -10 -110 48 -110 36 0 62 28 62 67 0 57 -69 84
-110 43z m68 -44 c4 -32 -15 -51 -35 -34 -14 11 -18 50 -6 62 15 15 38 -1 41
-28z"/>
<path d="M1870 184 c0 -50 3 -64 15 -64 11 0 15 12 15 45 0 33 5 47 16 52 21
8 34 -14 34 -59 0 -27 4 -38 15 -38 11 0 15 13 15 54 0 63 -10 74 -67 73 l-43
0 0 -63z"/>
<path d="M2017 243 c-4 -3 -7 -33 -7 -65 0 -51 2 -58 20 -58 18 0 20 7 20 65
0 47 -4 65 -13 65 -8 0 -17 -3 -20 -7z"/>
<path d="M2070 243 c0 -4 10 -33 22 -65 18 -45 28 -58 44 -58 16 0 24 12 38
53 9 28 20 58 23 65 3 7 -3 12 -15 12 -14 0 -22 -12 -32 -42 l-13 -43 -13 30
c-7 17 -13 36 -14 43 0 12 -40 18 -40 5z"/>
<path d="M2232 234 c-26 -18 -30 -74 -6 -98 25 -26 94 -18 94 10 0 17 -22 18
-37 3 -6 -6 -16 -8 -22 -5 -23 14 -10 26 29 26 33 0 40 3 40 20 0 25 -34 60
-58 60 -10 0 -28 -7 -40 -16z m58 -24 c0 -5 -9 -10 -20 -10 -11 0 -20 5 -20
10 0 6 9 10 20 10 11 0 20 -4 20 -10z"/>
<path d="M2350 184 c0 -57 2 -64 20 -64 17 0 20 7 20 44 0 36 4 45 21 49 33 9
17 31 -24 34 l-37 2 0 -65z"/>
<path d="M2458 239 c-30 -17 -22 -48 17 -65 20 -8 33 -19 30 -24 -3 -6 -16 -5
-30 2 -30 13 -43 5 -25 -17 25 -30 100 -11 100 26 0 13 -11 25 -35 35 -43 18
-46 28 -5 19 23 -5 30 -3 30 8 0 26 -49 35 -82 16z"/>
<path d="M2570 186 c0 -60 2 -66 20 -66 19 0 21 5 18 62 -2 50 -6 63 -20 66
-16 3 -18 -5 -18 -62z"/>
<path d="M2730 240 c0 -5 9 -34 21 -65 11 -30 18 -64 14 -75 -5 -15 -2 -20 13
-20 14 0 25 18 47 80 15 45 25 83 22 87 -14 13 -35 -8 -44 -44 -10 -39 -11
-38 -32 20 -10 25 -41 39 -41 17z"/>
</g>
</svg>
